# xmcd CD database file
#
# Track frame offsets:
#	150
#	20072
#	40085
#	61970
#
# Disc length: 1113 seconds
#
# Revision: 0
# Processed by: cddbd v1.5.1PL2 Copyright (c) Steve Scherf et al.
# Submitted via: CDex 1.51
#
DISCID=2d045704
DTITLE=千歳屋 - こみかる☆ホワイティーク
DYEAR=1900
DGENRE=Game
TTITLE0=千歳屋 - Powder Snow
TTITLE1=千歳屋 - As time goes by
TTITLE2=千歳屋 - Little stone
TTITLE3=千歳屋 - 歩み
EXTD=
EXTT0=
EXTT1=
EXTT2=
EXTT3=
PLAYORDER=
